<svg width="457" height="381" viewBox="0 0 457 381" fill="none" xmlns="http://www.w3.org/2000/svg">
<g clip-path="url(#clip0_1_2)">
<path d="M313.419 264.68C347.345 278.177 358.654 317.941 358.654 317.941C361.39 319.303 367.889 390.853 417.022 379.227C466.612 367.494 454.962 288.757 454.962 288.757C454.962 288.757 453.867 240.238 440.005 164.359C426.142 88.4802 352.817 87.3858 352.817 87.3858L101.013 87.8874C101.013 87.8874 38.5504 92.7537 21.0936 147.353C3.6367 201.952 0.904106 296.379 0.904106 296.379C0.904106 296.379 -7.65159 383.051 54.0983 379.704C54.0983 379.704 82.066 385.903 97.3243 321.055C97.3243 321.055 103.95 294.755 124.227 276.485C124.227 276.485 135.735 266.625 141.723 264.41C141.723 264.41 161.413 275.68 179.865 266.953C198.732 258.031 201.352 249.109 201.352 249.744H255.28C255.28 249.744 264.381 264.279 282.312 268.762C300.243 273.244 313.419 264.68 313.419 264.68Z" fill="#242426" stroke="#1A1A1F" stroke-width="0.999999"/>
<path d="M144.834 265.712C142.891 262.572 140.824 259.514 137.556 257.257" stroke="#1A1A1F" stroke-width="0.999999"/>
<path d="M313.419 264.68C315.055 261.422 317.029 259.177 319.112 257.257" stroke="#1A1A1F" stroke-width="0.999999"/>
<path d="M255.28 249.744C259.08 248.305 256.897 243.468 256.897 243.468C247.048 219.994 264.242 200.479 264.242 200.479C292.805 175.653 315.665 195.699 315.665 195.699C350.958 228.366 319.112 257.257 319.112 257.257C349.809 271.539 379.521 258.242 379.521 258.242C441.736 232.798 433.036 171.404 433.036 171.404C424.992 94.4151 350.54 93.8819 350.54 93.8819H110.533C110.533 93.8819 47.9271 89.3263 26.4227 154.988C26.4227 154.988 14.1111 189.625 37.0928 225.739C60.0746 261.854 97.0096 263.331 97.0096 263.331C97.0096 263.331 124.259 266.614 137.556 257.257C137.556 257.257 117.693 241.827 127.871 211.458C127.871 211.458 139.033 185.686 168.253 188.64C197.473 191.595 202.069 219.666 202.069 219.666C202.069 219.666 205.845 230.172 199.935 245.438C199.935 245.438 198.393 248.353 201.352 249.744H255.28Z" fill="#353537" stroke="#1A1A1F" stroke-width="0.999999"/>
<path d="M318.039 173.287C326.537 173.287 333.425 166.488 333.425 158.101C333.425 149.713 326.537 142.914 318.039 142.914C309.542 142.914 302.654 149.713 302.654 158.101C302.654 166.488 309.542 173.287 318.039 173.287Z" fill="#0A0A0A" stroke="#1A1A1F" stroke-width="0.826311"/>
<path d="M389.261 173.575C397.758 173.575 404.647 166.776 404.647 158.389C404.647 150.002 397.758 143.203 389.261 143.203C380.764 143.203 373.876 150.002 373.876 158.389C373.876 166.776 380.764 173.575 389.261 173.575Z" fill="#0A0A0A" stroke="#1A1A1F" stroke-width="0.826311"/>
<path d="M353.59 204.74C362.087 204.74 368.975 197.941 368.975 189.554C368.975 181.167 362.087 174.367 353.59 174.367C345.093 174.367 338.204 181.167 338.204 189.554C338.204 197.941 345.093 204.74 353.59 204.74Z" fill="#0A0A0A" stroke="#1A1A1F" stroke-width="0.826311"/>
<path d="M353.337 245.538C360.55 245.538 366.398 239.824 366.398 232.775C366.398 225.726 360.55 220.012 353.337 220.012C346.123 220.012 340.275 225.726 340.275 232.775C340.275 239.824 346.123 245.538 353.337 245.538Z" fill="#6C6E6E" stroke="#484B4A" stroke-width="0.697977"/>
<path d="M353.348 242.489C358.688 242.489 363.016 238.205 363.016 232.92C363.016 227.635 358.688 223.351 353.348 223.351C348.008 223.351 343.68 227.635 343.68 232.92C343.68 238.205 348.008 242.489 353.348 242.489Z" fill="#353537" stroke="#1A1A1F" stroke-width="0.519961"/>
<path d="M103.294 241.787C108.633 241.787 112.962 237.503 112.962 232.218C112.962 226.933 108.633 222.649 103.294 222.649C97.9539 222.649 93.6252 226.933 93.6252 232.218C93.6252 237.503 97.9539 241.787 103.294 241.787Z" fill="#353537" stroke="#1A1A1F" stroke-width="0.519961"/>
<path d="M353.59 142.401C362.087 142.401 368.975 135.601 368.975 127.214C368.975 118.827 362.087 112.028 353.59 112.028C345.093 112.028 338.204 118.827 338.204 127.214C338.204 135.601 345.093 142.401 353.59 142.401Z" fill="#0A0A0A" stroke="#1A1A1F" stroke-width="0.826311"/>
<path d="M315.409 151.417L318.349 156.16H318.438L321.377 151.417H323.003L319.418 157.118L323.003 162.819H321.377L318.438 158.165H318.349L315.409 162.819H313.783L317.458 157.118L313.783 151.417H315.409Z" fill="#45A2F1"/>
<path d="M348.994 120.366H350.56L353.694 125.64H353.826L356.959 120.366H358.526L354.444 127.008V131.664H353.076V127.008L348.994 120.366Z" fill="#ECDB33"/>
<path d="M386.067 162.244V151.862H389.697C390.42 151.862 391.017 151.988 391.486 152.238C391.956 152.484 392.306 152.817 392.536 153.236C392.765 153.652 392.88 154.113 392.88 154.62C392.88 155.066 392.801 155.434 392.642 155.725C392.487 156.016 392.28 156.246 392.024 156.414C391.77 156.583 391.495 156.708 391.197 156.79V156.891C391.515 156.911 391.834 157.023 392.155 157.226C392.476 157.428 392.745 157.719 392.961 158.097C393.178 158.476 393.286 158.939 393.286 159.486C393.286 160.007 393.168 160.475 392.931 160.89C392.694 161.306 392.321 161.636 391.811 161.879C391.3 162.122 390.636 162.244 389.819 162.244H386.067ZM387.325 161.129H389.819C390.64 161.129 391.223 160.97 391.567 160.652C391.916 160.331 392.09 159.943 392.09 159.486C392.09 159.135 392 158.81 391.821 158.513C391.642 158.212 391.387 157.972 391.055 157.793C390.724 157.611 390.332 157.52 389.879 157.52H387.325V161.129ZM387.325 156.425H389.656C390.035 156.425 390.376 156.35 390.68 156.202C390.988 156.053 391.231 155.843 391.41 155.573C391.593 155.303 391.684 154.985 391.684 154.62C391.684 154.164 391.525 153.777 391.208 153.459C390.89 153.138 390.386 152.978 389.697 152.978H387.325V156.425Z" fill="#D04242"/>
<path d="M350.269 193.14H348.885L352.89 182.233H354.253L358.258 193.14H356.873L353.614 183.959H353.529L350.269 193.14ZM350.781 188.88H356.362V190.051H350.781V188.88Z" fill="#3CDB4E"/>
<path d="M94.2662 123.322H111.973C111.973 123.322 114.75 123.161 114.75 126.099C114.75 129.036 114.75 145.053 114.75 145.053C114.75 145.053 114.79 147.307 117.124 147.307C119.458 147.307 135.394 147.307 135.394 147.307C135.394 147.307 138.654 147.226 138.654 150.566C138.654 153.906 138.654 167.267 138.654 167.267C138.654 167.267 139.056 169.742 136.179 169.742C133.302 169.742 117.285 169.742 117.285 169.742C117.285 169.742 114.538 170.869 114.538 172.488C114.538 174.108 114.538 191.735 114.538 191.735C114.538 191.735 114.78 194.265 112.008 194.265C109.237 194.265 94.7491 194.265 94.7491 194.265C94.7491 194.265 91.834 193.46 91.834 191.35C91.834 189.24 91.834 172.177 91.834 172.177C91.834 172.177 92.0755 169.892 89.549 169.892C87.0225 169.892 70.201 169.892 70.201 169.892C70.201 169.892 68.1325 170.18 68.1325 166.309C68.1325 162.438 68.1325 150.043 68.1325 150.043C68.1325 150.043 68.374 146.956 71.2191 146.956C74.0643 146.956 89.4371 146.956 89.4371 146.956C89.4371 146.956 92.0374 147.306 92.0374 145.455C92.0374 143.604 92.0374 125.656 92.0374 125.656C92.0374 125.656 92.8979 123.322 94.2662 123.322Z" fill="#0A0A0A" stroke="#1A1A1F" stroke-opacity="0.770161" stroke-width="0.999999"/>
<path d="M103.442 167.127C108.076 167.127 111.833 163.352 111.833 158.695C111.833 154.038 108.076 150.263 103.442 150.263C98.8069 150.263 95.0499 154.038 95.0499 158.695C95.0499 163.352 98.8069 167.127 103.442 167.127Z" fill="#020202" stroke="#1A1A1F" stroke-width="0.950105"/>
<path fill-rule="evenodd" clip-rule="evenodd" d="M96.642 140.054L103.622 127.932L110.63 140.038L96.642 140.054Z" fill="#353537" stroke="#1A1A1F" stroke-width="0.831496"/>
<path fill-rule="evenodd" clip-rule="evenodd" d="M96.4527 176.25L103.432 188.373L110.441 176.267L96.4527 176.25Z" fill="#353537" stroke="#1A1A1F" stroke-width="0.831496"/>
<path fill-rule="evenodd" clip-rule="evenodd" d="M120.732 151.473L132.854 158.453L120.748 165.462L120.732 151.473Z" fill="#353537" stroke="#1A1A1F" stroke-width="0.831496"/>
<path fill-rule="evenodd" clip-rule="evenodd" d="M85.6008 165.452L73.4781 158.472L85.5841 151.464L85.6008 165.452Z" fill="#353537" stroke="#1A1A1F" stroke-width="0.831496"/>
<path fill-rule="evenodd" clip-rule="evenodd" d="M107.111 237.932L103.315 235.967L99.5837 238.057L100.234 233.751L97.1416 230.76L101.339 230.064L103.159 226.125L105.103 230.001L109.32 230.558L106.324 233.65L107.111 237.932Z" fill="#242426"/>
<path d="M292.736 253.08C308.395 253.08 321.089 240.3 321.089 224.534C321.089 208.768 308.395 195.987 292.736 195.987C277.077 195.987 264.383 208.768 264.383 224.534C264.383 240.3 277.077 253.08 292.736 253.08Z" fill="#0A0A0A" stroke="#1A1A1F" stroke-width="1.21661"/>
<path d="M164.181 252.941C179.84 252.941 192.534 240.161 192.534 224.395C192.534 208.629 179.84 195.848 164.181 195.848C148.522 195.848 135.828 208.629 135.828 224.395C135.828 240.161 148.522 252.941 164.181 252.941Z" fill="#0A0A0A" stroke="#1A1A1F" stroke-width="1.21661"/>
<path d="M163.844 241.325C173.392 241.325 181.132 233.498 181.132 223.842C181.132 214.187 173.392 206.36 163.844 206.36C154.295 206.36 146.555 214.187 146.555 223.842C146.555 233.498 154.295 241.325 163.844 241.325Z" fill="#353537" stroke="#1A1A1F" stroke-width="0.743467"/>
<path d="M293.029 241.3C302.577 241.3 310.318 233.473 310.318 223.817C310.318 214.162 302.577 206.335 293.029 206.335C283.481 206.335 275.74 214.162 275.74 223.817C275.74 233.473 283.481 241.3 293.029 241.3Z" fill="#353537" stroke="#1A1A1F" stroke-width="0.743467"/>
<path d="M349 231H346V234H349V231Z" fill="#242426" fill-opacity="0.995951"/>
<path d="M358 228H355V231H358V228Z" fill="#242426" fill-opacity="0.995951"/>
<path d="M352 228H349V231H352V228Z" fill="#242426" fill-opacity="0.995951"/>
<path d="M355 231H352V234H355V231Z" fill="#242426" fill-opacity="0.995951"/>
<path d="M352 234H349V237H352V234Z" fill="#242426" fill-opacity="0.995951"/>
<path d="M358 234H355V237H358V234Z" fill="#242426" fill-opacity="0.995951"/>
<path d="M355 237H352V240H355V237Z" fill="#242426" fill-opacity="0.995951"/>
<path d="M361 231H358V234H361V231Z" fill="#242426" fill-opacity="0.995951"/>
<path d="M304.234 87.3865C321.36 87.4515 338.492 87.393 355.616 87.5352C370.374 89.0772 385.101 93.3061 398.265 101.261C397.696 101.214 398.817 96.217 397.765 95.5769C381.934 85.9459 370.357 83.6372 355.6 82.4319C338.983 82.4656 322.367 82.4993 305.75 82.533C303.655 83.1073 304.173 85.1441 304.132 86.7507C304.208 86.874 303.987 87.5131 304.234 87.3865Z" fill="#353537" stroke="#1A1A1F" stroke-width="0.999999"/>
<path d="M304.132 86.7507C304.276 86.8786 304.11 87.0606 304.155 87.2019C304.178 87.2668 304.209 87.3233 304.232 87.3865" fill="#353537"/>
<path d="M304.132 86.7507C304.276 86.8786 304.11 87.0606 304.155 87.2019C304.178 87.2668 304.209 87.3233 304.232 87.3865" stroke="#1A1A1F" stroke-width="0.999999"/>
<path d="M152.389 87.4612C135.401 87.5275 118.408 87.4677 101.424 87.6129C86.7853 89.1856 72.1778 93.4988 59.1208 101.612C59.6851 101.564 58.5728 96.4677 59.6165 95.8148C75.3193 85.9919 86.8015 83.6371 101.439 82.4078C117.921 82.4422 134.403 82.4766 150.884 82.5109C152.962 83.0967 152.449 85.174 152.489 86.8127C152.414 86.9384 152.633 87.5903 152.389 87.4612Z" fill="#353537" stroke="#1A1A1F" stroke-width="1.00581"/>
<path d="M152.489 86.8127C152.347 86.9431 152.512 87.1287 152.466 87.2729C152.444 87.3391 152.413 87.3967 152.39 87.4612" fill="#353537"/>
<path d="M152.489 86.8127C152.347 86.9431 152.512 87.1287 152.466 87.2729C152.444 87.3391 152.413 87.3967 152.39 87.4612" stroke="#1A1A1F" stroke-width="1.00581"/>
<path d="M67.3668 68.8581H143.027C143.027 68.8581 146.593 67.7429 146.593 62.6822C146.593 57.6214 136.285 0.127233 108.568 0.501792C80.8508 0.876343 65.4941 37.3955 65.4941 37.3955C65.4941 37.3955 49.7838 70.4334 67.3668 68.8581Z" fill="#353537" stroke="#1A1A1F" stroke-width="0.999999"/>
<path d="M389.646 68.8596H313.986C313.986 68.8596 310.42 67.7444 310.42 62.6837C310.42 57.6229 320.728 0.128728 348.445 0.503287C376.162 0.877838 391.519 37.397 391.519 37.397C391.519 37.397 407.229 70.4349 389.646 68.8596Z" fill="#353537" stroke="#1A1A1F" stroke-width="0.999999"/>
<rect x="216" y="177" width="24" height="14" rx="7" fill="#0A0A0A" stroke="#1A1A1F" stroke-width="1.22"/>
<path d="M223 184V187H233V184M228 185V181M228 181L226.5 182.5M228 181L229.5 182.5" stroke="#6C6E6E" stroke-linecap="square"/>
<circle cx="258" cy="159" r="9" fill="#0A0A0A" stroke="#1A1A1F" stroke-width="1.22"/>
<path d="M253.5 156.5H262.728M253.5 159.5H262.5M262.5 162.5H253.5" stroke="#6C6E6E" stroke-linecap="square"/>
<circle cx="198" cy="159" r="9" fill="#0A0A0A" stroke="#1A1A1F" stroke-width="1.22"/>
<path d="M199 157.5V155.5H193V160H195M197 159.5V163.5H202.5V159.5H197Z" stroke="#6C6E6E" stroke-linecap="square"/>
<circle cx="228" cy="135" r="16.5" fill="#E8E8E8" stroke="#1A1A1F"/>
<mask id="mask0_1_2" style="mask-type:alpha" maskUnits="userSpaceOnUse" x="212" y="119" width="32" height="32">
<circle cx="228" cy="135" r="16" fill="#E8E8E8"/>
</mask>
<g mask="url(#mask0_1_2)">
<path d="M228 132.5C224 135.5 220.5 140 216.5 147C216.5 140.5 219.5 133.5 224 129C222.5 127 220 124.5 216 123.5C219.5 122.5 224.5 124 228 126C231.5 124 236.5 122.5 240 123.5C236 124.5 233.5 127 232 129C236.5 133.5 239.5 140.5 239.5 147C235.5 140 232 135.5 228 132.5Z" fill="#4C4C4C"/>
</g>
<circle cx="228" cy="109" r="2" fill="white" stroke="#1A1A1F" stroke-width="1.22"/>
</g>
<defs>
<clipPath id="clip0_1_2">
<rect width="456.652" height="381.001" fill="white"/>
</clipPath>
</defs>
</svg>
