<svg width="127" height="63" viewBox="0 0 127 63" fill="none" xmlns="http://www.w3.org/2000/svg">
<g clip-path="url(#clip0_5_35)">
<path d="M111.096 30.7859C119.593 30.7859 126.481 23.9868 126.481 15.5995C126.481 7.21232 119.593 0.413147 111.096 0.413147C102.598 0.413147 95.7102 7.21232 95.7102 15.5995C95.7102 23.9868 102.598 30.7859 111.096 30.7859Z" fill="#0A0A0A" stroke="#1A1A1F" stroke-width="0.826311"/>
<path d="M108.465 8.9157L111.405 13.6593H111.494L114.434 8.9157H116.059L112.474 14.6169L116.059 20.3181H114.434L111.494 15.6636H111.405L108.465 20.3181H106.839L110.514 14.6169L106.839 8.9157H108.465Z" fill="#45A2F1"/>
<path d="M79.3702 30.786C87.8673 30.786 94.7556 23.9868 94.7556 15.5996C94.7556 7.21235 87.8673 0.413177 79.3702 0.413177C70.8731 0.413177 63.9848 7.21235 63.9848 15.5996C63.9848 23.9868 70.8731 30.786 79.3702 30.786Z" fill="#0A0A0A" stroke="#1A1A1F" stroke-width="0.826311"/>
<path d="M74.7742 8.75163H76.3408L79.4741 14.0252H79.6064L82.7397 8.75163H84.3063L80.2243 15.3933V20.049H78.8562V15.3933L74.7742 8.75163Z" fill="#ECDB33"/>
<path d="M47.5466 30.7859C56.0437 30.7859 62.932 23.9868 62.932 15.5995C62.932 7.21232 56.0437 0.413147 47.5466 0.413147C39.0495 0.413147 32.1612 7.21232 32.1612 15.5995C32.1612 23.9868 39.0495 30.7859 47.5466 30.7859Z" fill="#0A0A0A" stroke="#1A1A1F" stroke-width="0.826311"/>
<path d="M44.353 19.4545V9.07306H47.9825C48.7056 9.07306 49.3021 9.19809 49.7718 9.44817C50.2416 9.69486 50.5913 10.0277 50.8211 10.4468C51.0509 10.8624 51.1658 11.3237 51.1658 11.8306C51.1658 12.2767 51.0864 12.6451 50.9276 12.9357C50.7721 13.2263 50.566 13.4561 50.3092 13.6251C50.0557 13.794 49.7803 13.9191 49.4829 14.0002V14.1016C49.8006 14.1218 50.1199 14.2334 50.441 14.4361C50.762 14.6389 51.0307 14.9295 51.2469 15.308C51.4632 15.6865 51.5714 16.1495 51.5714 16.6969C51.5714 17.2174 51.4531 17.6854 51.2165 18.1011C50.98 18.5167 50.6065 18.8462 50.0963 19.0895C49.586 19.3328 48.9219 19.4545 48.1041 19.4545H44.353ZM45.6101 18.3393H48.1041C48.9253 18.3393 49.5083 18.1805 49.8529 17.8628C50.201 17.5418 50.3751 17.1531 50.3751 16.6969C50.3751 16.3455 50.2855 16.0211 50.1064 15.7237C49.9273 15.4229 49.6722 15.183 49.341 15.0039C49.0098 14.8214 48.6178 14.7301 48.1649 14.7301H45.6101V18.3393ZM45.6101 13.6352H47.9419C48.3204 13.6352 48.6617 13.5609 48.9659 13.4122C49.2734 13.2635 49.5167 13.054 49.6958 12.7836C49.8783 12.5133 49.9695 12.1956 49.9695 11.8306C49.9695 11.3744 49.8107 10.9875 49.493 10.6698C49.1754 10.3488 48.6719 10.1883 47.9825 10.1883H45.6101V13.6352Z" fill="#D04242"/>
<path d="M15.7985 30.786C24.2957 30.786 31.1839 23.9868 31.1839 15.5995C31.1839 7.21232 24.2957 0.413147 15.7985 0.413147C7.30142 0.413147 0.413147 7.21232 0.413147 15.5995C0.413147 23.9868 7.30142 30.786 15.7985 30.786Z" fill="#0A0A0A" stroke="#1A1A1F" stroke-width="0.826311"/>
<path d="M12.4783 19.186H11.0937L15.0985 8.27923H16.4619L20.4667 19.186H19.0821L15.8228 10.0047H15.7376L12.4783 19.186ZM12.9896 14.9256H18.5708V16.0972H12.9896V14.9256Z" fill="#3CDB4E"/>
<path d="M111.096 62.5113C119.593 62.5113 126.481 55.7122 126.481 47.3249C126.481 38.9377 119.593 32.1385 111.096 32.1385C102.598 32.1385 95.7101 38.9377 95.7101 47.3249C95.7101 55.7122 102.598 62.5113 111.096 62.5113Z" fill="white" stroke="black" stroke-width="0.826311"/>
<path d="M108.465 40.6411L111.405 45.3847H111.494L114.434 40.6411H116.059L112.474 46.3423L116.059 52.0435H114.434L111.494 47.389H111.405L108.465 52.0435H106.839L110.514 46.3423L106.839 40.6411H108.465Z" fill="#1F2A45"/>
<path d="M108.465 40.6411L108.632 40.5379L108.574 40.4451H108.465V40.6411ZM111.405 45.3847L111.238 45.4879L111.296 45.5807H111.405V45.3847ZM111.494 45.3847V45.5807H111.603L111.66 45.4879L111.494 45.3847ZM114.434 40.6411V40.4451H114.324L114.267 40.5379L114.434 40.6411ZM116.059 40.6411L116.225 40.7454L116.414 40.4451H116.059V40.6411ZM112.474 46.3423L112.308 46.238L112.242 46.3423L112.308 46.4466L112.474 46.3423ZM116.059 52.0435V52.2395H116.414L116.225 51.9392L116.059 52.0435ZM114.434 52.0435L114.268 52.1481L114.326 52.2395H114.434V52.0435ZM111.494 47.389L111.66 47.2843L111.602 47.193H111.494V47.389ZM111.405 47.389V47.193H111.297L111.239 47.2843L111.405 47.389ZM108.465 52.0435V52.2395H108.573L108.631 52.1481L108.465 52.0435ZM106.839 52.0435L106.675 51.9373L106.48 52.2395H106.839V52.0435ZM110.514 46.3423L110.679 46.4485L110.747 46.3423L110.679 46.2361L110.514 46.3423ZM106.839 40.6411V40.4451H106.48L106.675 40.7473L106.839 40.6411ZM108.465 40.6411L108.299 40.7443L111.238 45.4879L111.405 45.3847L111.571 45.2814L108.632 40.5379L108.465 40.6411ZM111.405 45.3847V45.5807H111.494V45.3847V45.1887H111.405V45.3847ZM111.494 45.3847L111.66 45.4879L114.6 40.7443L114.434 40.6411L114.267 40.5379L111.327 45.2814L111.494 45.3847ZM114.434 40.6411V40.8371H116.059V40.6411V40.4451H114.434V40.6411ZM116.059 40.6411L115.893 40.5368L112.308 46.238L112.474 46.3423L112.64 46.4466L116.225 40.7454L116.059 40.6411ZM112.474 46.3423L112.308 46.4466L115.893 52.1478L116.059 52.0435L116.225 51.9392L112.64 46.238L112.474 46.3423ZM116.059 52.0435V51.8475H114.434V52.0435V52.2395H116.059V52.0435ZM114.434 52.0435L114.599 51.9388L111.66 47.2843L111.494 47.389L111.328 47.4937L114.268 52.1481L114.434 52.0435ZM111.494 47.389V47.193H111.405V47.389V47.585H111.494V47.389ZM111.405 47.389L111.239 47.2843L108.299 51.9388L108.465 52.0435L108.631 52.1481L111.571 47.4937L111.405 47.389ZM108.465 52.0435V51.8475H106.839V52.0435V52.2395H108.465V52.0435ZM106.839 52.0435L107.004 52.1497L110.679 46.4485L110.514 46.3423L110.349 46.2361L106.675 51.9373L106.839 52.0435ZM110.514 46.3423L110.679 46.2361L107.004 40.5349L106.839 40.6411L106.675 40.7473L110.349 46.4485L110.514 46.3423ZM106.839 40.6411V40.8371H108.465V40.6411V40.4451H106.839V40.6411Z" fill="white"/>
<path d="M79.3702 62.5113C87.8673 62.5113 94.7556 55.7122 94.7556 47.3249C94.7556 38.9377 87.8673 32.1385 79.3702 32.1385C70.8731 32.1385 63.9848 38.9377 63.9848 47.3249C63.9848 55.7122 70.8731 62.5113 79.3702 62.5113Z" fill="white" stroke="black" stroke-width="0.826311"/>
<path d="M74.7742 40.477H76.3408L79.4741 45.7506H79.6064L82.7397 40.477H84.3063L80.2243 47.1186V51.7744H78.8562V47.1186L74.7742 40.477Z" fill="#33BDCE"/>
<path d="M74.7742 40.477V40.2828H74.4269L74.6087 40.5787L74.7742 40.477ZM76.3408 40.477L76.5077 40.3778L76.4513 40.2828H76.3408V40.477ZM79.4741 45.7506L79.3071 45.8498L79.3636 45.9447H79.4741V45.7506ZM79.6064 45.7506V45.9447H79.7169L79.7734 45.8498L79.6064 45.7506ZM82.7397 40.477V40.2828H82.6292L82.5728 40.3778L82.7397 40.477ZM84.3063 40.477L84.4718 40.5787L84.6536 40.2828H84.3063V40.477ZM80.2243 47.1186L80.0588 47.0169L80.0301 47.0637V47.1186H80.2243ZM80.2243 51.7744V51.9686H80.4184V51.7744H80.2243ZM78.8562 51.7744H78.6621V51.9686H78.8562V51.7744ZM78.8562 47.1186H79.0504V47.0637L79.0217 47.0169L78.8562 47.1186ZM74.7742 40.477V40.6712H76.3408V40.477V40.2828H74.7742V40.477ZM76.3408 40.477L76.1739 40.5762L79.3071 45.8498L79.4741 45.7506L79.641 45.6514L76.5077 40.3778L76.3408 40.477ZM79.4741 45.7506V45.9447H79.6064V45.7506V45.5564H79.4741V45.7506ZM79.6064 45.7506L79.7734 45.8498L82.9066 40.5762L82.7397 40.477L82.5728 40.3778L79.4395 45.6514L79.6064 45.7506ZM82.7397 40.477V40.6712H84.3063V40.477V40.2828H82.7397V40.477ZM84.3063 40.477L84.1409 40.3753L80.0588 47.0169L80.2243 47.1186L80.3897 47.2203L84.4718 40.5787L84.3063 40.477ZM80.2243 47.1186H80.0301V51.7744H80.2243H80.4184V47.1186H80.2243ZM80.2243 51.7744V51.5802H78.8562V51.7744V51.9686H80.2243V51.7744ZM78.8562 51.7744H79.0504V47.1186H78.8562H78.6621V51.7744H78.8562ZM78.8562 47.1186L79.0217 47.0169L74.9396 40.3753L74.7742 40.477L74.6087 40.5787L78.6908 47.2203L78.8562 47.1186Z" fill="white"/>
<path d="M47.5466 62.5113C56.0437 62.5113 62.932 55.7122 62.932 47.3249C62.932 38.9377 56.0437 32.1385 47.5466 32.1385C39.0494 32.1385 32.1612 38.9377 32.1612 47.3249C32.1612 55.7122 39.0494 62.5113 47.5466 62.5113Z" fill="white" stroke="black" stroke-width="0.826311"/>
<path d="M44.353 51.1799V40.7984H47.9824C48.7056 40.7984 49.3021 40.9235 49.7718 41.1735C50.2415 41.4202 50.5913 41.7531 50.8211 42.1721C51.0509 42.5878 51.1658 43.0491 51.1658 43.556C51.1658 44.0021 51.0864 44.3704 50.9276 44.6611C50.7721 44.9517 50.566 45.1815 50.3091 45.3504C50.0557 45.5194 49.7803 45.6445 49.4829 45.7256V45.8269C49.8005 45.8472 50.1199 45.9587 50.4409 46.1615C50.762 46.3643 51.0306 46.6549 51.2469 47.0334C51.4632 47.4119 51.5713 47.8748 51.5713 48.4223C51.5713 48.9427 51.4531 49.4108 51.2165 49.8264C50.9799 50.2421 50.6065 50.5716 50.0962 50.8149C49.5859 51.0582 48.9219 51.1799 48.1041 51.1799H44.353ZM45.6101 50.0647H48.1041C48.9253 50.0647 49.5082 49.9058 49.8529 49.5882C50.201 49.2671 50.375 48.8785 50.375 48.4223C50.375 48.0708 50.2855 47.7464 50.1064 47.449C49.9273 47.1483 49.6721 46.9083 49.3409 46.7292C49.0098 46.5467 48.6178 46.4555 48.1649 46.4555H45.6101V50.0647ZM45.6101 45.3606H47.9419C48.3204 45.3606 48.6617 45.2862 48.9658 45.1375C49.2734 44.9889 49.5167 44.7793 49.6958 44.509C49.8783 44.2386 49.9695 43.921 49.9695 43.556C49.9695 43.0998 49.8107 42.7128 49.493 42.3952C49.1754 42.0741 48.6718 41.9136 47.9824 41.9136H45.6101V45.3606Z" fill="#24240D" fill-opacity="0.654902"/>
<path d="M44.353 51.1799H44.1746V51.3583H44.353V51.1799ZM44.353 40.7984V40.62H44.1746V40.7984H44.353ZM49.7718 41.1735L49.688 41.331L49.6888 41.3315L49.7718 41.1735ZM50.8211 42.1721L50.6647 42.2579L50.665 42.2585L50.8211 42.1721ZM50.9276 44.6611L50.771 44.5755L50.7702 44.5769L50.9276 44.6611ZM50.3091 45.3504L50.2111 45.2014L50.2102 45.202L50.3091 45.3504ZM49.4829 45.7256L49.4359 45.5534L49.3044 45.5893V45.7256H49.4829ZM49.4829 45.8269H49.3044V45.9943L49.4715 46.005L49.4829 45.8269ZM50.4409 46.1615L50.3456 46.3124V46.3124L50.4409 46.1615ZM51.2469 47.0334L51.092 47.1219L51.2469 47.0334ZM51.2165 49.8264L51.3716 49.9147V49.9147L51.2165 49.8264ZM50.0962 50.8149L50.0194 50.6538V50.6538L50.0962 50.8149ZM45.6101 50.0647H45.4317V50.2431H45.6101V50.0647ZM49.8529 49.5882L49.9738 49.7194L49.9739 49.7193L49.8529 49.5882ZM50.1064 47.449L49.9531 47.5403L49.9535 47.5411L50.1064 47.449ZM49.3409 46.7292L49.2548 46.8855L49.2561 46.8862L49.3409 46.7292ZM45.6101 46.4555V46.2771H45.4317V46.4555H45.6101ZM45.6101 45.3606H45.4317V45.539H45.6101V45.3606ZM48.9658 45.1375L48.8882 44.9769L48.8875 44.9772L48.9658 45.1375ZM49.6958 44.509L49.5479 44.4092L49.547 44.4104L49.6958 44.509ZM49.493 42.3952L49.3662 42.5207L49.3668 42.5214L49.493 42.3952ZM45.6101 41.9136V41.7352H45.4317V41.9136H45.6101ZM44.353 51.1799H44.5314V40.7984H44.353H44.1746V51.1799H44.353ZM44.353 40.7984V40.9769H47.9824V40.7984V40.62H44.353V40.7984ZM47.9824 40.7984V40.9769C48.6864 40.9769 49.2516 41.0988 49.688 41.331L49.7718 41.1735L49.8557 41.016C49.3525 40.7482 48.7248 40.62 47.9824 40.62V40.7984ZM49.7718 41.1735L49.6888 41.3315C50.1311 41.5638 50.4536 41.873 50.6647 42.2579L50.8211 42.1721L50.9776 42.0863C50.7291 41.6332 50.352 41.2767 49.8548 41.0156L49.7718 41.1735ZM50.8211 42.1721L50.665 42.2585C50.8792 42.6459 50.9874 43.0772 50.9874 43.556H51.1658H51.3442C51.3442 43.021 51.2227 42.5297 50.9773 42.0858L50.8211 42.1721ZM51.1658 43.556H50.9874C50.9874 43.9821 50.9114 44.3186 50.771 44.5755L50.9276 44.6611L51.0841 44.7466C51.2614 44.4222 51.3442 44.022 51.3442 43.556H51.1658ZM50.9276 44.6611L50.7702 44.5769C50.6278 44.8432 50.4413 45.0499 50.2111 45.2014L50.3091 45.3504L50.4072 45.4995C50.6907 45.313 50.9165 45.0601 51.0849 44.7452L50.9276 44.6611ZM50.3091 45.3504L50.2102 45.202C49.9729 45.3602 49.715 45.4773 49.4359 45.5534L49.4829 45.7256L49.5298 45.8977C49.8455 45.8116 50.1385 45.6786 50.4081 45.4989L50.3091 45.3504ZM49.4829 45.7256H49.3044V45.8269H49.4829H49.6613V45.7256H49.4829ZM49.4829 45.8269L49.4715 46.005C49.7541 46.023 50.045 46.1225 50.3456 46.3124L50.4409 46.1615L50.5362 46.0106C50.1948 45.795 49.847 45.6714 49.4942 45.6489L49.4829 45.8269ZM50.4409 46.1615L50.3456 46.3124C50.6386 46.4974 50.888 46.765 51.092 47.1219L51.2469 47.0334L51.4018 46.9448C51.1732 46.5448 50.8854 46.2312 50.5362 46.0106L50.4409 46.1615ZM51.2469 47.0334L51.092 47.1219C51.2894 47.4674 51.3929 47.8981 51.3929 48.4223H51.5713H51.7498C51.7498 47.8516 51.637 47.3564 51.4018 46.9448L51.2469 47.0334ZM51.5713 48.4223H51.3929C51.3929 48.9146 51.2813 49.3517 51.0614 49.7382L51.2165 49.8264L51.3716 49.9147C51.6248 49.4698 51.7498 48.9709 51.7498 48.4223H51.5713ZM51.2165 49.8264L51.0614 49.7382C50.846 50.1167 50.5029 50.4233 50.0194 50.6538L50.0962 50.8149L50.173 50.976C50.7101 50.7199 51.1139 50.3675 51.3716 49.9147L51.2165 49.8264ZM50.0962 50.8149L50.0194 50.6538C49.5414 50.8818 48.9063 51.0014 48.1041 51.0014V51.1799V51.3583C48.9375 51.3583 49.6305 51.2346 50.173 50.976L50.0962 50.8149ZM48.1041 51.1799V51.0014H44.353V51.1799V51.3583H48.1041V51.1799ZM45.6101 50.0647V50.2431H48.1041V50.0647V49.8862H45.6101V50.0647ZM48.1041 50.0647V50.2431C48.9393 50.2431 49.579 50.0833 49.9738 49.7194L49.8529 49.5882L49.732 49.457C49.4375 49.7284 48.9113 49.8862 48.1041 49.8862V50.0647ZM49.8529 49.5882L49.9739 49.7193C50.357 49.366 50.5535 48.9304 50.5535 48.4223H50.375H50.1966C50.1966 48.8266 50.045 49.1683 49.7319 49.457L49.8529 49.5882ZM50.375 48.4223H50.5535C50.5535 48.0388 50.4553 47.6825 50.2592 47.357L50.1064 47.449L49.9535 47.5411C50.1157 47.8103 50.1966 48.1029 50.1966 48.4223H50.375ZM50.1064 47.449L50.2597 47.3577C50.0629 47.0272 49.7831 46.7655 49.4258 46.5723L49.3409 46.7292L49.2561 46.8862C49.5611 47.0512 49.7917 47.2693 49.9531 47.5403L50.1064 47.449ZM49.3409 46.7292L49.4271 46.573C49.0647 46.3733 48.6419 46.2771 48.1649 46.2771V46.4555V46.6339C48.5936 46.6339 48.9548 46.7202 49.2548 46.8855L49.3409 46.7292ZM48.1649 46.4555V46.2771H45.6101V46.4555V46.6339H48.1649V46.4555ZM45.6101 46.4555H45.4317V50.0647H45.6101H45.7885V46.4555H45.6101ZM45.6101 45.3606V45.539H47.9419V45.3606V45.1822H45.6101V45.3606ZM47.9419 45.3606V45.539C48.3443 45.539 48.7129 45.4598 49.0442 45.2978L48.9658 45.1375L48.8875 44.9772C48.6105 45.1127 48.2964 45.1822 47.9419 45.1822V45.3606ZM48.9658 45.1375L49.0435 45.2982C49.3783 45.1363 49.6468 44.906 49.8445 44.6075L49.6958 44.509L49.547 44.4104C49.3866 44.6526 49.1684 44.8414 48.8882 44.9769L48.9658 45.1375ZM49.6958 44.509L49.8437 44.6088C50.0484 44.3055 50.1479 43.9522 50.1479 43.556H49.9695H49.7911C49.7911 43.8898 49.7081 44.1717 49.5479 44.4092L49.6958 44.509ZM49.9695 43.556H50.1479C50.1479 43.0533 49.9709 42.6207 49.6192 42.269L49.493 42.3952L49.3668 42.5214C49.6505 42.805 49.7911 43.1463 49.7911 43.556H49.9695ZM49.493 42.3952L49.6198 42.2697C49.2546 41.9005 48.6948 41.7352 47.9824 41.7352V41.9136V42.0921C48.6488 42.0921 49.0961 42.2477 49.3662 42.5207L49.493 42.3952ZM47.9824 41.9136V41.7352H45.6101V41.9136V42.0921H47.9824V41.9136ZM45.6101 41.9136H45.4317V45.3606H45.6101H45.7885V41.9136H45.6101Z" fill="white"/>
<path d="M15.7985 62.5113C24.2957 62.5113 31.1839 55.7122 31.1839 47.3249C31.1839 38.9377 24.2957 32.1385 15.7985 32.1385C7.30142 32.1385 0.413147 38.9377 0.413147 47.3249C0.413147 55.7122 7.30142 62.5113 15.7985 62.5113Z" fill="white" stroke="black" stroke-width="0.826311"/>
<path d="M12.4783 50.9114H11.0937L15.0985 40.0046H16.4619L20.4667 50.9114H19.0821L15.8228 41.7301H15.7376L12.4783 50.9114ZM12.9896 46.651H18.5708V47.8226H12.9896V46.651Z" fill="#B53F51"/>
<path d="M12.4783 50.9114V51.0989H12.6107L12.655 50.9742L12.4783 50.9114ZM11.0937 50.9114L10.9177 50.8468L10.8251 51.0989H11.0937V50.9114ZM15.0985 40.0046V39.8172H14.9677L14.9225 39.94L15.0985 40.0046ZM16.4619 40.0046L16.6378 39.94L16.5927 39.8172H16.4619V40.0046ZM20.4667 50.9114V51.0989H20.7353L20.6427 50.8468L20.4667 50.9114ZM19.0821 50.9114L18.9054 50.9742L18.9497 51.0989H19.0821V50.9114ZM15.8228 41.7301L15.9995 41.6674L15.9552 41.5427H15.8228V41.7301ZM15.7376 41.7301V41.5427H15.6052L15.5609 41.6674L15.7376 41.7301ZM12.9896 46.651V46.4635H12.8021V46.651H12.9896ZM18.5708 46.651H18.7583V46.4635H18.5708V46.651ZM18.5708 47.8226V48.0101H18.7583V47.8226H18.5708ZM12.9896 47.8226H12.8021V48.0101H12.9896V47.8226ZM12.4783 50.9114V50.724H11.0937V50.9114V51.0989H12.4783V50.9114ZM11.0937 50.9114L11.2697 50.9761L15.2745 40.0692L15.0985 40.0046L14.9225 39.94L10.9177 50.8468L11.0937 50.9114ZM15.0985 40.0046V40.1921H16.4619V40.0046V39.8172H15.0985V40.0046ZM16.4619 40.0046L16.2859 40.0692L20.2907 50.9761L20.4667 50.9114L20.6427 50.8468L16.6378 39.94L16.4619 40.0046ZM20.4667 50.9114V50.724H19.0821V50.9114V51.0989H20.4667V50.9114ZM19.0821 50.9114L19.2587 50.8487L15.9995 41.6674L15.8228 41.7301L15.6461 41.7928L18.9054 50.9742L19.0821 50.9114ZM15.8228 41.7301V41.5427H15.7376V41.7301V41.9176H15.8228V41.7301ZM15.7376 41.7301L15.5609 41.6674L12.3017 50.8487L12.4783 50.9114L12.655 50.9742L15.9143 41.7928L15.7376 41.7301ZM12.9896 46.651V46.8384H18.5708V46.651V46.4635H12.9896V46.651ZM18.5708 46.651H18.3833V47.8226H18.5708H18.7583V46.651H18.5708ZM18.5708 47.8226V47.6351H12.9896V47.8226V48.0101H18.5708V47.8226ZM12.9896 47.8226H13.1771V46.651H12.9896H12.8021V47.8226H12.9896Z" fill="white"/>
</g>
<defs>
<clipPath id="clip0_5_35">
<rect width="126.894" height="62.9245" fill="white"/>
</clipPath>
</defs>
</svg>
