<svg width="95" height="21" viewBox="0 0 95 21" fill="none" xmlns="http://www.w3.org/2000/svg">
<g clip-path="url(#clip0_20_5)">
<path d="M0.635534 5.55638C17.6233 5.62268 34.6158 5.56282 51.6006 5.70803C66.2389 7.28073 80.8463 11.5939 93.9033 19.7074C93.3391 19.6591 94.4514 14.5628 93.4077 13.9099C77.7048 4.08702 66.2227 1.73226 51.585 0.502991C35.1033 0.537384 18.6216 0.571751 2.13994 0.606107C0.0618386 1.19185 0.575658 3.26918 0.535244 4.90787C0.610608 5.03354 0.390734 5.68542 0.635534 5.55638Z" fill="#FAFAFA" fill-opacity="0.956863" stroke="#D9D9D9" stroke-width="1.00581"/>
<path d="M0.535263 4.9079C0.677335 5.03829 0.512573 5.22391 0.557928 5.36808C0.580605 5.43426 0.611533 5.4919 0.634399 5.55638" fill="#FAFAFA" fill-opacity="0.956863"/>
<path d="M0.535263 4.9079C0.677335 5.03829 0.512573 5.22391 0.557928 5.36808C0.580605 5.43426 0.611533 5.4919 0.634399 5.55638" stroke="#D9D9D9" stroke-width="1.00581"/>
</g>
<defs>
<clipPath id="clip0_20_5">
<rect width="94.379" height="20.2084" fill="white" transform="matrix(-1 0 0 1 94.379 0)"/>
</clipPath>
</defs>
</svg>
