<svg width="118" height="59" viewBox="0 0 118 59" fill="none" xmlns="http://www.w3.org/2000/svg">
<g clip-path="url(#clip0_5_169)">
<path d="M28.9612 57.7029C44.6201 57.7029 57.3141 44.9221 57.3141 29.1562C57.3141 13.3903 44.6201 0.609528 28.9612 0.609528C13.3023 0.609528 0.608276 13.3903 0.608276 29.1562C0.608276 44.9221 13.3023 57.7029 28.9612 57.7029Z" fill="#242426" stroke="#1A1A1F" stroke-width="1.21661"/>
<path d="M28.6238 46.0866C38.1722 46.0866 45.9127 38.2593 45.9127 28.6039C45.9127 18.9485 38.1722 11.1212 28.6238 11.1212C19.0754 11.1212 11.3349 18.9485 11.3349 28.6039C11.3349 38.2593 19.0754 46.0866 28.6238 46.0866Z" fill="#353537" stroke="#1A1A1F" stroke-width="0.743467"/>
<path d="M88.403 57.7016C104.062 57.7016 116.756 44.9209 116.756 29.155C116.756 13.3891 104.062 0.608307 88.403 0.608307C72.7441 0.608307 60.05 13.3891 60.05 29.155C60.05 44.9209 72.7441 57.7016 88.403 57.7016Z" fill="white" stroke="white" stroke-width="1.21661"/>
<path d="M88.0655 46.0854C97.6139 46.0854 105.354 38.2581 105.354 28.6027C105.354 18.9473 97.6139 11.12 88.0655 11.12C78.5171 11.12 70.7766 18.9473 70.7766 28.6027C70.7766 38.2581 78.5171 46.0854 88.0655 46.0854Z" fill="#D4D2D3" stroke="#B6B4B5" stroke-width="0.743467"/>
</g>
<defs>
<clipPath id="clip0_5_169">
<rect width="117.364" height="58.3112" fill="white"/>
</clipPath>
</defs>
</svg>
